<svg id="Layer_1" data-name="Layer 1" xmlns="http://www.w3.org/2000/svg" viewBox="0 0 103.48 132.83"><defs><style>.cls-1{fill:#fff;}</style></defs><title>ifsvg</title><path class="cls-1" d="M59.65,102.09c0-7.21,0-8.14-5-11.47L53,89.52c-.74-.74-.74-2.77.19-3.33,4.25-1.48,14.8-6.29,19.05-9.06a1.71,1.71,0,0,1,1.85,1.11c-.37,6.48-.74,15.35-.74,22.94v33.3c0,13.32.37,15.17,7,16.09l3.88.55c1.29.93.93,4.07-.37,4.63-5.55-.37-10.91-.55-17.39-.55-6.66,0-12.21.18-17.39.55-1.29-.55-1.67-3.7-.37-4.62l3.89-.55c6.84-.92,7-2.78,7-16.09ZM75,49.37C75,56,70.38,59,65.2,59a9.09,9.09,0,0,1-9.44-9.25,9.62,9.62,0,0,1,10-10C71.3,39.75,75,44.19,75,49.37Z" transform="translate(-47.93 -22.92)"/><path class="cls-1" d="M111.08,90.07c-3.15,0-3.15.37-3.15,5.36v39c0,13.32.37,15.54,7,16.09l6.66.55c1.29.93.92,4.07-.37,4.63-8.33-.37-13.69-.55-20.17-.55-6.66,0-12.21.18-17.76.55-1.3-.55-1.67-3.7-.37-4.62l4.25-.55c6.84-.92,7-2.78,7-16.09v-39c0-5,0-5.36-3.7-5.36H84.07a2.59,2.59,0,0,1-.56-3.52l8-3.88c1.48-.74,2.77-1.85,2.77-3.7,0-10.73,1.29-22.2,5.73-32.56,4.62-10.54,15-23.5,33.3-23.5,9.8,0,18.13,4.44,18.13,11.1,0,3.7-3.52,6.66-7,6.66a5.27,5.27,0,0,1-4.44-2.22c-3.52-4.07-8.7-8.14-14.8-8.14-5.73,0-10.36,3.52-13.13,10.18-3.33,8.51-4.07,22-4.07,31.26v5.37c0,5,0,5.18,3.15,5.18h21.09c2,1.85.74,7-1.29,7.77Z" transform="translate(-47.93 -22.92)"/></svg>